<?xml version="1.0" standalone="no"?>
<!DOCTYPE svg PUBLIC "-//W3C//DTD SVG 20010904//EN"
 "http://www.w3.org/TR/2001/REC-SVG-20010904/DTD/svg10.dtd">
<svg version="1.0" xmlns="http://www.w3.org/2000/svg"
 width="512.000000pt" height="512.000000pt" viewBox="0 0 24.000000 24.000000"
 preserveAspectRatio="xMidYMid meet">

<g transform="translate(0.000000,512.000000) scale(0.100000,-0.100000)"
fill="#000000" stroke="none">
<path d="M4453 3143 c-12 -2 -34 -18 -48 -34 -22 -27 -25 -39 -25 -115 0 -98
9 -120 73 -182 37 -36 55 -45 111 -57 197 -41 324 -184 351 -392 l7 -53 99 0
99 0 0 385 0 385 -29 32 -29 33 -294 1 c-161 1 -303 0 -315 -3z"/>
<path d="M2883 3073 c-35 -7 -48 -32 -48 -93 0 -68 15 -90 61 -90 29 0 34 -3
34 -24 0 -21 -5 -24 -61 -29 -62 -5 -93 -23 -104 -58 -5 -15 -16 -19 -49 -19
-56 0 -109 -19 -194 -70 -38 -22 -77 -40 -89 -40 -12 0 -35 18 -58 45 -46 56
-85 77 -147 78 -58 1 -66 -6 -82 -69 l-12 -49 -344 -5 -344 -5 30 -35 c82 -95
96 -145 103 -370 l6 -185 1278 -3 c702 -1 1277 1 1277 4 0 3 -9 18 -20 34 -51
72 -64 120 -64 240 -1 111 0 118 33 185 23 47 55 90 97 131 l63 61 -412 184
-412 184 -260 1 c-143 1 -270 0 -282 -3z"/>
<path d="M1087 2679 c-113 -18 -214 -97 -265 -207 -22 -47 -27 -71 -27 -142 0
-77 3 -92 33 -152 105 -215 380 -268 555 -108 123 113 152 293 70 436 -71 125
-223 196 -366 173z m33 -179 c0 -66 -19 -75 -66 -29 -19 18 -34 36 -34 40 0 8
68 38 88 38 8 1 12 -15 12 -49z m134 23 l29 -15 -36 -35 c-48 -48 -67 -40 -67
27 0 49 1 51 23 44 12 -3 35 -13 51 -21z m-246 -96 c45 -46 36 -67 -29 -67
-36 0 -49 4 -49 15 0 18 31 85 40 85 3 0 21 -15 38 -33z m333 12 c6 -12 15
-35 19 -50 l9 -29 -54 0 c-67 0 -76 17 -34 65 36 41 44 43 60 14z m-307 -156
c4 -11 -4 -28 -26 -50 -17 -18 -35 -33 -38 -33 -9 0 -40 67 -40 85 0 23 96 21
104 -2z m326 -12 c-10 -37 -29 -71 -38 -71 -5 0 -23 15 -40 33 -46 47 -36 67
33 67 l54 0 -9 -29z m-242 -109 c2 -31 -1 -52 -7 -52 -16 0 -91 31 -91 38 0 3
15 21 32 39 45 47 62 40 66 -25z m131 24 l33 -34 -28 -15 c-16 -8 -39 -18 -51
-21 -22 -7 -23 -5 -23 48 0 47 3 56 18 56 10 0 33 -15 51 -34z"/>
<path d="M4437 2679 c-99 -16 -202 -88 -250 -176 -14 -28 -32 -82 -39 -121
-10 -61 -9 -78 6 -133 31 -114 87 -184 184 -233 62 -30 94 -38 168 -37 126 1
254 82 310 198 39 78 45 195 15 275 -61 160 -225 255 -394 227z m33 -179 c0
-66 -19 -75 -66 -29 -19 18 -34 36 -34 40 0 8 68 38 88 38 8 1 12 -15 12 -49z
m138 22 l23 -15 -34 -35 c-47 -47 -67 -39 -67 28 0 50 0 50 28 44 15 -4 37
-14 50 -22z m-250 -95 c45 -46 36 -67 -29 -67 -27 0 -49 4 -49 10 0 17 32 90
39 90 4 0 22 -15 39 -33z m333 12 c6 -12 15 -35 19 -50 l9 -29 -55 0 c-44 0
-54 3 -54 17 0 14 56 83 67 83 1 0 7 -10 14 -21z m-304 -155 c5 -14 -51 -84
-68 -84 -7 0 -39 73 -39 90 0 6 23 10 50 10 37 0 52 -4 57 -16z m323 -13 c-4
-15 -13 -38 -20 -51 l-12 -22 -34 33 c-19 18 -34 41 -34 51 0 15 9 18 54 18
l55 0 -9 -29z m-242 -109 l3 -53 -28 7 c-15 3 -39 13 -52 21 l-23 15 33 34
c46 48 63 42 67 -24z m131 24 l33 -34 -28 -15 c-16 -8 -39 -18 -51 -21 -22 -7
-23 -5 -23 42 0 74 17 81 69 28z"/>
<path d="M645 2571 c-230 -41 -467 -112 -599 -178 -45 -23 -48 -27 -33 -38 10
-7 45 -16 80 -19 89 -10 136 -26 158 -54 10 -14 19 -29 19 -33 0 -5 -52 -9
-115 -9 -133 0 -135 -1 -135 -99 0 -93 -5 -91 302 -91 314 0 298 -7 298 130
l0 90 45 0 45 0 0 53 c0 67 24 159 56 216 13 24 24 45 24 47 0 7 -45 2 -145
-15z"/>
</g>
</svg>
